<svg width="25" height="25" viewBox="0 0 25 25" fill="none" xmlns="http://www.w3.org/2000/svg">
    <path d="M4.63281 4.96411C3.80439 4.96411 3.13281 5.63568 3.13281 6.46411C3.13281 7.29254 3.80439 7.96411 4.63281 7.96411H21.1934C22.0218 7.96411 22.6934 7.29254 22.6934 6.46411C22.6934 5.63568 22.0218 4.96411 21.1934 4.96411H4.63281ZM4.63281 10.9641C3.80439 10.9641 3.13281 11.6357 3.13281 12.4641C3.13281 13.2925 3.80439 13.9641 4.63281 13.9641H21.1934C22.0218 13.9641 22.6934 13.2925 22.6934 12.4641C22.6934 11.6357 22.0218 10.9641 21.1934 10.9641H4.63281ZM4.63281 16.9641C3.80439 16.9641 3.13281 17.6357 3.13281 18.4641C3.13281 19.2925 3.80438 19.9641 4.63281 19.9641H21.1934C22.0218 19.9641 22.6934 19.2925 22.6934 18.4641C22.6934 17.6357 22.0218 16.9641 21.1934 16.9641H4.63281Z" fill="url(#paint0_linear_39_159)" stroke="#48180A"/>
    <defs>
    <linearGradient id="paint0_linear_39_159" x1="12.9131" y1="5.46411" x2="12.9131" y2="19.4641" gradientUnits="userSpaceOnUse">
    <stop stop-color="#FFD600"/>
    <stop offset="1" stop-color="white"/>
    </linearGradient>
    </defs>
    </svg>
    