<svg width="25" height="25" viewBox="0 0 25 25" fill="none" xmlns="http://www.w3.org/2000/svg">
    <path d="M20.4131 4.18384C20.4131 3.35541 19.7415 2.68384 18.9131 2.68384C18.0847 2.68384 17.4131 3.35541 17.4131 4.18384L17.4131 20.7444C17.4131 21.5728 18.0847 22.2444 18.9131 22.2444C19.7415 22.2444 20.4131 21.5728 20.4131 20.7444L20.4131 4.18384ZM14.4131 4.18384C14.4131 3.35541 13.7415 2.68384 12.9131 2.68384C12.0847 2.68384 11.4131 3.35541 11.4131 4.18384L11.4131 20.7444C11.4131 21.5728 12.0847 22.2444 12.9131 22.2444C13.7415 22.2444 14.4131 21.5728 14.4131 20.7444L14.4131 4.18384ZM8.41309 4.18384C8.41309 3.35541 7.74151 2.68384 6.91309 2.68384C6.08466 2.68384 5.41309 3.35541 5.41309 4.18384L5.41309 20.7444C5.41309 21.5728 6.08466 22.2444 6.91309 22.2444C7.74151 22.2444 8.41309 21.5728 8.41309 20.7444L8.41309 4.18384Z" fill="url(#paint0_linear_39_427)" stroke="#48180A"/>
    <defs>
    <linearGradient id="paint0_linear_39_427" x1="19.9131" y1="12.4641" x2="5.91309" y2="12.4641" gradientUnits="userSpaceOnUse">
    <stop stop-color="#FFD600"/>
    <stop offset="1" stop-color="white"/>
    </linearGradient>
    </defs>
    </svg>
    